<svg id="wave" style="transform:rotate(180deg); transition: 0.3s" viewBox="0 0 1440 490" version="1.1" xmlns="http://www.w3.org/2000/svg"><defs><linearGradient id="sw-gradient-0" x1="0" x2="0" y1="1" y2="0"><stop stop-color="#2596be" offset="0%"></stop><stop stop-color="rgba(53.104, 161.799, 231.924, 1)" offset="100%"></stop></linearGradient></defs><path style="transform:translate(0, 0px); opacity:1" fill="url(#sw-gradient-0)" d="M0,98L80,130.7C160,163,320,229,480,220.5C640,212,800,131,960,81.7C1120,33,1280,16,1440,16.3C1600,16,1760,33,1920,73.5C2080,114,2240,180,2400,204.2C2560,229,2720,212,2880,196C3040,180,3200,163,3360,163.3C3520,163,3680,180,3840,220.5C4000,261,4160,327,4320,343C4480,359,4640,327,4800,334.8C4960,343,5120,392,5280,343C5440,294,5600,147,5760,147C5920,147,6080,294,6240,343C6400,392,6560,343,6720,334.8C6880,327,7040,359,7200,326.7C7360,294,7520,196,7680,147C7840,98,8000,98,8160,81.7C8320,65,8480,33,8640,73.5C8800,114,8960,229,9120,277.7C9280,327,9440,310,9600,277.7C9760,245,9920,196,10080,220.5C10240,245,10400,343,10560,392C10720,441,10880,441,11040,392C11200,343,11360,245,11440,196L11520,147L11520,490L11440,490C11360,490,11200,490,11040,490C10880,490,10720,490,10560,490C10400,490,10240,490,10080,490C9920,490,9760,490,9600,490C9440,490,9280,490,9120,490C8960,490,8800,490,8640,490C8480,490,8320,490,8160,490C8000,490,7840,490,7680,490C7520,490,7360,490,7200,490C7040,490,6880,490,6720,490C6560,490,6400,490,6240,490C6080,490,5920,490,5760,490C5600,490,5440,490,5280,490C5120,490,4960,490,4800,490C4640,490,4480,490,4320,490C4160,490,4000,490,3840,490C3680,490,3520,490,3360,490C3200,490,3040,490,2880,490C2720,490,2560,490,2400,490C2240,490,2080,490,1920,490C1760,490,1600,490,1440,490C1280,490,1120,490,960,490C800,490,640,490,480,490C320,490,160,490,80,490L0,490Z"></path></svg>